<svg xmlns="http://www.w3.org/2000/svg" xmlns:xlink="http://www.w3.org/1999/xlink" id="Layer_1" width="48" height="48" x="0" style="enable-background:new 0 0 48 48" y="0" version="1.1" viewBox="0 0 48 48" xml:space="preserve"><style type="text/css">.st0{fill:#d9725c}</style><metadata><sfw xmlns="http://ns.adobe.com/SaveForWeb/1.0/"><slices/><sliceSourceBounds width="48" height="44.001" x="0" y="2" bottomLeftOrigin="true"/></sfw></metadata><g><path d="M45,46H3c-1.654,0-3-1.346-3-3V15c0-1.654,1.346-3,3-3h42c1.654,0,3,1.346,3,3v28C48,44.654,46.654,46,45,46z M3,14c-0.551,0-1,0.449-1,1v28c0,0.552,0.449,1,1,1h42c0.552,0,1-0.448,1-1V15c0-0.551-0.448-1-1-1H3z" class="st0"/><path d="M47,36H35c-1.654,0-3-1.346-3-3v-8c0-1.654,1.346-3,3-3h12c0.553,0,1,0.448,1,1v12C48,35.553,47.553,36,47,36z M35,24c-0.552,0-1,0.449-1,1v8c0,0.552,0.448,1,1,1h11V24H35z" class="st0"/><path d="M39,32c-1.654,0-3-1.346-3-3s1.346-3,3-3s3,1.346,3,3S40.654,32,39,32z M39,28c-0.552,0-1,0.448-1,1 s0.448,1,1,1s1-0.448,1-1S39.552,28,39,28z" class="st0"/><path d="M41.88,14h-19.3c-0.487,0-0.903-0.351-0.986-0.832c-0.082-0.48,0.194-0.95,0.653-1.112l17.019-6 c0.516-0.181,1.075,0.081,1.268,0.587l2.28,6c0.117,0.308,0.075,0.653-0.111,0.923S42.209,14,41.88,14z M28.425,12H40.43 l-1.418-3.732L28.425,12z" class="st0"/><path d="M9.32,14c-0.376,0-0.737-0.213-0.907-0.577c-0.233-0.5-0.017-1.096,0.483-1.329l21.44-10 c0.496-0.232,1.085-0.021,1.323,0.471l2.94,6.08c0.24,0.498,0.032,1.095-0.465,1.336c-0.499,0.242-1.095,0.032-1.336-0.465 l-2.511-5.192L9.743,13.906C9.606,13.97,9.462,14,9.32,14z" class="st0"/></g></svg>