<svg xmlns="http://www.w3.org/2000/svg" id="icons" width="48" height="48" viewBox="0 0 48 48"><defs><style>.cls-1,.cls-2{fill:none;stroke:#d9725c;stroke-miterlimit:10;stroke-width:2px}.cls-2{stroke-linecap:round}</style></defs><title>Artboard 101</title><g><path d="M13,13H9A8,8,0,0,0,9,29h4l20,8V5Z" class="cls-1"/><line x1="21.385" x2="29" y1="13.955" y2="10.909" class="cls-2"/><path d="M17.82,30.921l2.28,7.56a3.5,3.5,0,0,1-2.42,4.36,3.575,3.575,0,0,1-1.44.14,3.631,3.631,0,0,1-3.16-2.54L9.6,29" class="cls-1"/><line x1="13" x2="13" y1="13.001" y2="29.001" class="cls-1"/><path d="M33,27a6,6,0,0,0,0-12Z" class="cls-1"/><line x1="43" x2="47" y1="21.001" y2="21.001" class="cls-2"/><line x1="41" x2="45" y1="13.001" y2="11.001" class="cls-2"/><line x1="41" x2="45" y1="29.001" y2="31.001" class="cls-2"/></g></svg>