<svg xmlns="http://www.w3.org/2000/svg" xmlns:xlink="http://www.w3.org/1999/xlink" id="Layer_1" width="48" height="48" x="0" style="enable-background:new 0 0 48 48" y="0" version="1.1" viewBox="0 0 48 48" xml:space="preserve"><style type="text/css">.st3{fill:#d9725c}</style><g><path d="M23.981,23.666c4.789-2.751,6.441-8.863,3.69-13.652s-8.863-6.441-13.652-3.69s-6.441,8.863-3.69,13.652 c0.882,1.535,2.155,2.808,3.69,3.69C6.512,25.658,1,32.019,1,39.552v2.455c0,0.552,0.448,1,1,1s1-0.448,1-1v-2.455 c0-8.021,7.178-14.545,16-14.545s16,6.524,16,14.545v2.455c0,0.552,0.448,1,1,1s1-0.448,1-1v-2.455 C37,32.019,31.488,25.658,23.981,23.666z M11,15.007c0-4.418,3.582-8,8-8s8,3.582,8,8s-3.582,8-8,8 C14.584,23.002,11.005,19.423,11,15.007z" class="st3"/><path d="M37.4,23.68c3.685-2.437,4.697-7.4,2.26-11.086c-1.479-2.236-3.979-3.583-6.66-3.587c-0.552,0-1,0.448-1,1 s0.448,1,1,1c3.314,0,6,2.686,6,6s-2.686,6-6,6c-0.552,0-1,0.448-1,1s0.448,1,1,1c6.617,0,12,4.976,12,11.091v1.909 c0,0.552,0.448,1,1,1s1-0.448,1-1v-1.909C46.869,30.301,42.977,25.266,37.4,23.68z" class="st3"/></g></svg>