<svg xmlns="http://www.w3.org/2000/svg" id="Layer_1" data-name="Layer 1" viewBox="0 0 38 38"><defs><style>.cls-1{fill:#1681d8}</style></defs><path d="M10.645 7.849a2.54 2.54 0 102.54 2.539 2.542 2.542 0 00-2.54-2.539zm16.71 5.079a2.54 2.54 0 10-2.54-2.54 2.542 2.542 0 002.54 2.54z" class="cls-1"/><circle cx="2.289" cy="10.629" r="1.409" class="cls-1"/><circle cx="19" cy="10.629" r="2.739" class="cls-1"/><circle cx="35.711" cy="10.629" r="1.409" class="cls-1"/><circle cx="10.645" cy="2.258" r="1.409" class="cls-1"/><circle cx="19" cy="2.258" r="2.169" class="cls-1"/><circle cx="27.355" cy="2.258" r="1.409" class="cls-1"/><path d="M27.475 25.072a2.54 2.54 0 102.54 2.54 2.543 2.543 0 00-2.54-2.54zm-16.95 0a2.54 2.54 0 102.54 2.54 2.543 2.543 0 00-2.54-2.54z" class="cls-1"/><circle cx="35.831" cy="27.371" r="1.409" class="cls-1"/><path d="M19.12 24.632c-.041 0-.079.01-.12.012s-.079-.012-.12-.012a2.739 2.739 0 100 5.478c.041 0 .079-.01.12-.012s.079.012.12.012a2.739 2.739 0 100-5.478z" class="cls-1"/><circle cx="2.169" cy="27.371" r="1.409" class="cls-1"/><circle cx="27.475" cy="35.742" r="1.409" class="cls-1"/><path d="M19.12 33.573c-.041 0-.08.009-.12.012s-.079-.012-.12-.012a2.169 2.169 0 100 4.338c.041 0 .079-.01.12-.012s.079.012.12.012a2.169 2.169 0 100-4.338z" class="cls-1"/><circle cx="10.525" cy="35.742" r="1.409" class="cls-1"/><path d="M35.831 16.831A2.169 2.169 0 1038 19a2.171 2.171 0 00-2.169-2.169zm-33.662 0A2.169 2.169 0 104.338 19a2.171 2.171 0 00-2.169-2.169zM27.475 16.46a2.54 2.54 0 102.54 2.54 2.543 2.543 0 00-2.54-2.54zM18.88 15.868A3.132 3.132 0 1022.012 19a3.136 3.136 0 00-3.132-3.132zM10.525 16.46a2.54 2.54 0 102.54 2.54 2.543 2.543 0 00-2.54-2.54z" class="cls-1"/></svg>