<svg xmlns="http://www.w3.org/2000/svg" xmlns:xlink="http://www.w3.org/1999/xlink" width="122" height="28" version="1.1" viewBox="0 0 122 28"><title>EC8B62F8-3652-44FD-8BCD-FAF83C140765</title><desc>Created with sketchtool.</desc><defs><linearGradient id="linearGradient-1" x1="-16.836%" x2="76.219%" y1="91.94%" y2="-1.116%"><stop offset="10.8%" stop-color="#C757BC"/><stop offset="17.3%" stop-color="#CD5CA9"/><stop offset="49.2%" stop-color="#E8744F"/><stop offset="71.6%" stop-color="#F88316"/><stop offset="82.3%" stop-color="#FF8900"/></linearGradient><linearGradient id="linearGradient-2" x1="31.915%" x2="77.271%" y1="71.481%" y2="48.903%"><stop offset="29.6%" stop-color="#00AFFF"/><stop offset="69.4%" stop-color="#5282FF"/><stop offset="100%" stop-color="#945DFF"/></linearGradient><linearGradient id="linearGradient-3" x1="3.507%" x2="59.746%" y1="52.274%" y2="-7.989%"><stop offset="29.6%" stop-color="#00AFFF"/><stop offset="69.4%" stop-color="#5282FF"/><stop offset="100%" stop-color="#945DFF"/></linearGradient></defs><g id="Pages" fill="none" fill-rule="evenodd" stroke="none" stroke-width="1"><g id="Styles-&amp;-Components" fill-rule="nonzero" transform="translate(-770.000000, -14919.000000)"><g id="Full-Color-Logos" transform="translate(49.000000, 14905.000000)"><g id="kotlin-logo" transform="translate(721.000000, 14.000000)"><g id="Group" fill="#000400" transform="translate(33.845161, 0.000000)"><polygon id="Path" points=".01 1.097 5.639 1.097 5.639 12.287 16.018 1.097 22.816 1.097 12.4 11.958 23.291 26.694 16.53 26.694 8.599 15.797 5.639 18.869 5.639 26.694 .01 26.694"/><path id="Shape" d="M20.2997297,17.0037913 L20.2997297,16.9310745 C20.2997297,11.2995025 24.8316716,6.72847412 30.9350049,6.72847412 C37.0018193,6.72847412 41.4972425,11.2264239 41.4972425,16.857815 L41.4972425,16.9310745 C41.4972425,22.5624656 36.9653006,27.1331322 30.8619673,27.1331322 C24.7951529,27.1331322 20.2997297,22.6353633 20.2997297,17.0037913 L20.2997297,17.0037913 Z M36.0150897,17.0037913 L36.0150897,16.9310745 C36.0150897,14.0419386 33.9318933,11.5189191 30.8619673,11.5189191 C27.6823043,11.5189191 25.7818825,13.9686791 25.7818825,16.857815 L25.7818825,16.9310745 C25.7818825,19.8198486 27.8650789,22.3428682 30.9350049,22.3428682 C34.1146679,22.3428682 36.0150897,19.8929272 36.0150897,17.0037913 L36.0150897,17.0037913 Z"/><path id="Shape" d="M43.0306688,21.1361673 L43.0306688,11.8479535 L40.6916603,11.8479535 L40.6916603,7.09440963 L43.0306688,7.09440963 L43.0306688,2.08436722 L48.5858591,2.08436722 L48.5858591,7.09422875 L53.1908385,7.09422875 L53.1908385,11.8479535 L48.5858591,11.8479535 L48.5858591,20.2221425 C48.5858591,21.5017411 49.134002,22.1236324 50.3767246,22.1236324 C51.3344948,22.1282653 52.2777019,21.8890475 53.1176201,21.4284816 L53.1176201,25.8898921 C51.9481159,26.5846812 50.5960179,27.0235143 48.7321149,27.0235143 C45.3333393,27.0235143 43.0306688,25.6704755 43.0306688,21.1361673 Z M54.7853704,0 L60.3405607,0 L60.3405607,26.694299 L54.7853704,26.694299 L54.7853704,0 Z M62.3485501,0 L68.1958905,0 L68.1958905,4.93660207 L62.3485501,4.93660207 L62.3485501,0 Z M62.4949867,7.09422875 L68.0499962,7.09422875 L68.0499962,26.694299 L62.4948059,26.694299 L62.4949867,7.09422875 Z M70.163203,7.09422875 L75.7183933,7.09422875 L75.7183933,9.87320415 C76.9976346,8.22767012 78.6422443,6.72847412 81.4561774,6.72847412 C85.6592696,6.72847412 88.1078344,9.50763041 88.1078344,14.0055802 L88.1078344,26.694299 L82.5526441,26.694299 L82.5526441,15.7607321 C82.5526441,13.1279138 81.3099216,11.7748749 79.1902064,11.7748749 C77.0703105,11.7748749 75.7183933,13.1279138 75.7183933,15.7607321 L75.7183933,26.694299 L70.1630222,26.694299 L70.163203,7.09422875 Z"/></g><polygon id="Path" fill="url(#linearGradient-1)" points="12.843 1.181 0 14.687 0 26.761 12.825 13.914 25.581 1.181"/><polygon id="Path" fill="url(#linearGradient-2)" points="0 26.565 12.825 13.774 25.581 26.565"/><polygon id="Path" fill="url(#linearGradient-3)" points="0 .984 12.79 .984 0 14.561"/></g></g></g></g></svg>