<svg xmlns="http://www.w3.org/2000/svg" xmlns:xlink="http://www.w3.org/1999/xlink" width="124" height="37" version="1.1" viewBox="0 0 124 37"><title>CAFF938F-5FEC-4150-967F-D2212AA0DDBF</title><desc>Created with sketchtool.</desc><defs><linearGradient id="linearGradient-1" x1="84.681%" x2="58.231%" y1="110.991%" y2="64.475%"><stop offset="0%" stop-color="#DAE1E5"/><stop offset="41.5%" stop-color="#ABB9C9"/><stop offset="99%" stop-color="#9DACBF"/></linearGradient><linearGradient id="linearGradient-2" x1="69.178%" x2="35.808%" y1="60.762%" y2="19.175%"><stop offset="0%" stop-color="#9DACBF"/><stop offset="100%" stop-color="#8393AA"/></linearGradient><linearGradient id="linearGradient-3" x1="75.722%" x2="38.95%" y1="52.295%" y2="49.428%"><stop offset="0%" stop-color="#9DACBF"/><stop offset="99%" stop-color="#9DACBF"/></linearGradient><linearGradient id="linearGradient-4" x1="50.005%" x2="57.422%" y1="6.919%" y2="78.919%"><stop offset="0%" stop-color="#FFF"/><stop offset="22.9%" stop-color="#ABB9C9"/><stop offset="100%" stop-color="#8393AA"/></linearGradient><linearGradient id="linearGradient-5" x1="46.256%" x2="49.949%" y1="16.301%" y2="83.301%"><stop offset="0%" stop-color="#FFF"/><stop offset="23%" stop-color="#DAE1E5"/><stop offset="56.4%" stop-color="#9DACBF"/><stop offset="100%" stop-color="#8393AA"/></linearGradient><linearGradient id="linearGradient-6" x1="36.967%" x2="49.488%" y1="32.891%" y2="70.807%"><stop offset="0%" stop-color="#FFF"/><stop offset="18%" stop-color="#DAE1E5"/><stop offset="100%" stop-color="#9DACBF"/></linearGradient><linearGradient id="linearGradient-7" x1="13.956%" x2="85.714%" y1="50.898%" y2="38.676%"><stop offset="0%" stop-color="#FFF"/><stop offset="54%" stop-color="#BDC9D6"/><stop offset="100%" stop-color="#ABB9C9"/></linearGradient><linearGradient id="linearGradient-8" x1="48.615%" x2="50.043%" y1="21.301%" y2="79.161%"><stop offset="0%" stop-color="#FFF"/><stop offset="31%" stop-color="#DAE1E5"/><stop offset="99.3%" stop-color="#BDC9D6"/></linearGradient><linearGradient id="linearGradient-9" x1="-20.559%" x2="104.283%" y1="122.089%" y2="-6.395%"><stop offset="0%" stop-color="#BD0012"/><stop offset="0%" stop-color="#BDC9D6"/><stop offset="7%" stop-color="#FFF"/><stop offset="17%" stop-color="#FFF"/><stop offset="27%" stop-color="#CCD6DD"/><stop offset="46%" stop-color="#BDC9D6"/><stop offset="72%" stop-color="#9DACBF"/><stop offset="99%" stop-color="#8393AA"/></linearGradient><linearGradient id="linearGradient-10" x1="-27.681%" x2="51.135%" y1="73.232%" y2="37.881%"><stop offset="0%" stop-color="#ABB9C9"/><stop offset="2%" stop-color="#9DACBF"/><stop offset="98.9%" stop-color="#8393AA"/></linearGradient><linearGradient id="linearGradient-11" x1="73.46%" x2="28.943%" y1="63.03%" y2="18.148%"><stop offset="0%" stop-color="#AABAC1"/><stop offset="2.9%" stop-color="#8393AA"/><stop offset="100%" stop-color="#9DACBF"/></linearGradient><linearGradient id="linearGradient-12" x1="91.045%" x2="59.69%" y1="74.248%" y2="39.952%"><stop offset="0%" stop-color="#8393AA"/><stop offset="100%" stop-color="#9DACBF"/></linearGradient><radialGradient id="radialGradient-13" cx="31.613%" cy="39.65%" r="133.589%" fx="31.613%" fy="39.65%" gradientTransform="translate(0.316134,0.396495),scale(0.521163,1.000000),translate(-0.316134,-0.396495)"><stop offset="0%" stop-color="#9DACBF"/><stop offset="100%" stop-color="#8393AA"/></radialGradient><radialGradient id="radialGradient-14" cx="39.797%" cy="-7.18%" r="81.326%" fx="39.797%" fy="-7.18%" gradientTransform="translate(0.397967,-0.071798),scale(0.785854,1.000000),translate(-0.397967,0.071798)"><stop offset="0%" stop-color="#ABB9C9"/><stop offset="35.8%" stop-color="#ABB9C9"/><stop offset="78.1%" stop-color="#8393AA"/></radialGradient><linearGradient id="linearGradient-15" x1="51.545%" x2="38.656%" y1="101.392%" y2="12.052%"><stop offset="1.5%" stop-color="#8393AA"/><stop offset="43.3%" stop-color="#ABB9C9"/><stop offset="99%" stop-color="#DAE1E5"/></linearGradient><linearGradient id="linearGradient-16" x1="30.47%" x2="92%" y1="2197.859%" y2="2209.266%"><stop offset="0%" stop-color="#8393AA"/><stop offset="100%" stop-color="#9DACBF"/></linearGradient></defs><g id="Pages" fill="none" fill-rule="evenodd" stroke="none" stroke-width="1"><g id="Home-page-01" fill-rule="nonzero" transform="translate(-614.000000, -984.000000)"><g id="ruby-gray-02" transform="translate(614.000000, 984.000000)"><polygon id="Path" fill="url(#linearGradient-1)" points="6.6 32.4 30.7 30.8 32.6 6.5 25.3 21.4"/><polygon id="Path" fill="url(#linearGradient-2)" points="23.1 23.9 30.8 30.8 28.7 16.5"/><polygon id="Path" fill="url(#linearGradient-3)" points="6.7 32.4 30.8 30.8 15.6 29.6"/><polygon id="Path" fill="url(#linearGradient-4)" points="2.2 21.7 6.7 32.4 10.5 20"/><polygon id="Path" fill="url(#linearGradient-5)" points="9.6 19.6 23.1 23.9 19.6 10.3"/><polygon id="Path" fill="url(#linearGradient-6)" points="19.7 11.3 31.8 10.5 22.4 2.8"/><polygon id="Path" fill="url(#linearGradient-7)" points="18.3 0 27.4 0 21.8 3.1"/><polygon id="Path" fill="url(#linearGradient-8)" points=".4 16.6 0 25.9 2.3 21.7"/><path id="Path" fill="#FFF" d="M0.3,16.5 L2.2,21.9 L10.4,20.1 L19.8,11.4 L22.4,3 L18.2,0.1 L11.1,2.8 C8.9,4.9 4.5,9 4.4,9.1 C4.3,8.9 1.6,14 0.3,16.5 Z"/><path id="Path" fill="url(#linearGradient-9)" d="M7,6.8 C11.8,2 18,-0.8 20.4,1.6 C22.8,4 20.3,9.9 15.4,14.7 C10.5,19.5 4.4,22.5 2,20.1 C-0.3,17.6 2.1,11.6 7,6.8 Z"/><path id="Path" fill="url(#linearGradient-10)" d="M6.7,32.4 L10.5,19.9 L23,23.9 C18.5,28.2 13.5,31.7 6.7,32.4 Z"/><path id="Path" fill="url(#linearGradient-11)" d="M19.8,11.2 L23,23.9 C26.8,19.9 30.2,15.7 31.8,10.4 L19.8,11.2 Z"/><path id="Path" fill="url(#linearGradient-12)" d="M31.8,10.5 C33.1,6.6 33.4,1.1 27.3,1.77635684e-15 L22.3,2.7 L31.8,10.5 Z"/><path id="Path" fill="#BDC9D6" d="M0,25.8 C0.2,32.2 4.8,32.3 6.8,32.3 L2.2,21.8 L0,25.8 Z"/><path id="Path" fill="url(#radialGradient-13)" d="M19.9,11.3 C22.8,13.1 28.6,16.7 28.8,16.7 C29,16.8 31.3,12.8 31.8,10.5 L19.9,11.3 Z"/><path id="Path" fill="url(#radialGradient-14)" d="M10.6,19.934 L15.5,29.6 C18.2411655,28.0858258 20.7363153,26.1638861 22.9,23.9 L10.6,19.934 Z"/><path id="Path" fill="url(#linearGradient-15)" d="M2.2,21.8 L1.5,30.3 C2.8,32.1 4.7,32.3 6.6,32.2 C5.2,28.7 2.4,21.7 2.2,21.8 Z"/><path id="Path" fill="url(#linearGradient-16)" d="M22.4,2.8 L32.4,4.2 C31.9,1.9 30.2,0.5 27.4,1.77635684e-15 L22.4,2.8 Z"/><path id="Shape" fill="#8393AA" d="M51.7,20.7 L51.7,29.4 L46.9,29.4 L46.9,6.8 L53.5,6.8 C56.6,6.8 58.8,7.4 60.3,8.5 C61.8413674,9.72412599 62.667305,11.6387996 62.5,13.6 C62.5036493,14.8522799 62.1193791,16.0749576 61.4,17.1 C60.5940393,18.1570438 59.5252284,18.9845103 58.3,19.5 L64.9,29.3 L59.6,29.3 L54.2,20.6 L51.7,20.6 L51.7,20.7 Z M51.7,16.8 L53.2,16.8 C54.3556738,16.8741409 55.5065749,16.5951346 56.5,16 C57.2481074,15.4368296 57.6617431,14.5343518 57.6,13.6 C57.6621872,12.6934532 57.2447463,11.8206221 56.5,11.3 C55.4571464,10.7457184 54.2769933,10.5027457 53.1,10.6 L51.6,10.6 L51.6,16.8 L51.7,16.8 Z M79.6,29.3 L79,27.1 L78.8,27.1 C78.2766064,27.9047235 77.5529188,28.5594885 76.7,29 C75.6936657,29.4534688 74.6037558,29.6918866 73.5,29.7 C71.8094245,29.8409518 70.1381912,29.2596532 68.9,28.1 C67.8142908,26.784472 67.2770943,25.1012561 67.4,23.4 L67.4,12.1 L72,12.1 L72,22.2 C71.9166988,23.1851083 72.1629186,24.1699873 72.7,25 C73.1955274,25.6452057 73.9910391,25.9861392 74.8,25.9 C75.927533,26.0038799 77.0273498,25.5108586 77.7,24.6 C78.4123883,23.2487875 78.7246009,21.7224148 78.6,20.2 L78.6,12.1 L83.3,12.1 L83.3,29.3 L79.6,29.3 Z M97.7,11.7 C99.6000785,11.6496468 101.400235,12.5497253 102.5,14.1 C103.752955,16.0265763 104.34929,18.3066828 104.2,20.6 C104.34752,22.9386367 103.714402,25.2600695 102.4,27.2 C101.260959,28.7462677 99.4172599,29.6116776 97.5,29.5 C95.6394153,29.5807026 93.8534506,28.7621354 92.7,27.3 L92.4,27.3 L91.6,29.2 L88,29.2 L88,5.2 L92.7,5.2 L92.7,10.8 C92.7,11.5 92.6,12.6 92.5,14.2 L92.7,14.2 C93.8557078,12.5969804 95.7241597,11.6627545 97.7,11.7 L97.7,11.7 Z M96.2,15.5 C95.2336383,15.416524 94.2913331,15.8311383 93.7,16.6 C93.095159,17.6626919 92.8169023,18.880065 92.9,20.1 L92.9,20.6 C92.804293,21.9808749 93.0805494,23.3621567 93.7,24.6 C94.3040022,25.4188287 95.2850265,25.8716091 96.3,25.8 C97.2485439,25.8272093 98.1340908,25.3266829 98.6,24.5 C99.2715549,23.314668 99.5842297,21.9597439 99.5,20.6 C99.5998683,19.2707655 99.2854538,17.9432372 98.6,16.8 C98.0922489,15.9663314 97.1756562,15.4698437 96.2,15.5 L96.2,15.5 Z M105.4,12.1 L110.6,12.1 L113.9,21.8 C114.234703,22.7682771 114.436542,23.7774738 114.5,24.8 L114.6,24.8 C114.667222,23.7683769 114.903714,22.7548414 115.3,21.8 L118.5,12.1 L123.5,12.1 L116,31.5 C115.468197,33.1000982 114.455424,34.497027 113.1,35.5 C111.846306,36.389681 110.336605,36.8461024 108.8,36.8 C107.990722,36.7988411 107.184663,36.6980837 106.4,36.5 L106.4,32.8 C107.026391,32.921266 107.662088,32.9881815 108.3,33 C109.103418,32.9937483 109.880226,32.7112729 110.5,32.2 C111.178501,31.5658004 111.693192,30.7766083 112,29.9 L112.3,29.1 L105.4,12.1 Z"/></g></g></g></svg>